<?xml version="1.0" encoding="UTF-8" standalone="no"?>
<svg width="136px" height="130px" viewBox="0 0 136 130" version="1.1" xmlns="http://www.w3.org/2000/svg" xmlns:xlink="http://www.w3.org/1999/xlink">
    <!-- Generator: Sketch 39.1 (31720) - http://www.bohemiancoding.com/sketch -->
    <title>Page 1</title>
    <desc>Created with Sketch.</desc>
    <defs>
        <polygon id="path-1" points="135.798301 129.853419 135.798301 0.194147465 5.11278195e-05 0.194147465 5.11278195e-05 129.853419 135.798301 129.853419"></polygon>
    </defs>
    <g id="Page-1" stroke="none" stroke-width="1" fill="none" fill-rule="evenodd">
        <g id="Desktop-HD" transform="translate(-652.000000, -16.000000)">
            <g id="Page-1" transform="translate(652.000000, 16.000000)">
                <g id="Group-3" transform="translate(0.000000, 0.058978)">
                    <mask id="mask-2" fill="white">
                        <use xlink:href="#path-1"></use>
                    </mask>
                    <g id="Clip-2"></g>
                    <path d="M95.4211789,111.19729 C95.3419308,112.738067 94.9730436,114.121399 94.2043368,115.292359 C96.6978406,113.733104 97.2530887,111.327903 96.4733895,108.3395 C93.9369383,110.133655 92.7993444,112.329015 93.6981714,115.109855 C93.8666376,113.723738 94.4827278,112.427481 95.4211789,111.19729 M91.5329083,116.525841 C90.132006,116.356753 88.8233895,115.747732 87.5814947,114.816988 C89.1365474,114.896217 90.5364271,115.261477 91.7149233,116.025664 C90.1422316,113.555916 87.7126376,113.007645 84.6943068,113.778413 C86.5049985,116.290687 88.7226677,117.415325 91.5329083,116.525841 M95.1839459,117.372293 C96.582803,117.539862 97.8901414,118.149136 99.1343368,119.081651 C97.5782617,119.000398 96.1804271,118.636909 94.9998857,117.873482 C96.5733444,120.342977 99.0039609,120.893526 102.021525,120.120226 C100.210833,117.608206 97.9918857,116.481037 95.1839459,117.372293 M91.2946526,122.70135 C91.3716,121.159055 91.7417654,119.774963 92.5125173,118.605775 C90.0169684,120.163511 89.4624872,122.570737 90.2421865,125.55914 C92.7799158,123.767263 93.9164872,121.569878 93.016382,118.789291 C92.8502165,120.174395 92.2318256,121.469134 91.2946526,122.70135 M91.6627729,113.43315 C92.4519308,114.300865 93.0030887,115.235152 93.2219158,116.268159 C93.7158105,114.114564 92.7111489,112.532782 90.6811188,111.348659 C90.2922917,113.649826 90.8715699,115.427781 92.8530286,116.435981 C92.1952692,115.608007 91.8258707,114.590188 91.6627729,113.43315 M95.0507579,120.463971 C94.2636451,119.600559 93.7127429,118.663741 93.4926376,117.630988 C93.0023218,119.7861 94.0044271,121.365858 96.0334346,122.55074 C96.4235398,120.249067 95.8452842,118.47339 93.8605023,117.46114 C94.5192842,118.291393 94.8899609,119.31149 95.0507579,120.463971 M6.49379549,62.1885972 C6.34603609,88.1332292 22.8316902,111.521544 47.8710286,119.963035 C60.7002767,124.288449 74.9787429,124.427668 88.4700962,119.629162 C90.407585,119.765344 91.909209,119.11557 92.8113594,117.385456 C92.1592241,117.890442 91.393585,118.222036 90.5394947,118.42074 L90.444397,118.189889 C90.3071188,118.245071 90.1675398,118.295949 90.0289835,118.349105 C90.8316902,117.684903 91.6942165,117.215608 92.6398256,117.021208 C90.617209,116.567859 89.096412,117.395074 87.9304421,119.12772 C74.6786226,123.758403 60.6772692,123.589062 48.0847429,119.342118 C23.2805925,110.979855 6.67862256,87.929463 6.82459248,62.1896097 C6.87444211,53.477527 8.83238195,44.7727849 12.6948331,36.7061729 C12.8024571,36.4824097 12.673615,36.4059657 12.6636451,36.4009032 C12.6526526,36.3963469 12.5061714,36.3363561 12.3949684,36.5697381 C8.51181053,44.6786221 6.54338947,53.4319643 6.49379549,62.1885972 M12.5547429,38.0259706 C14.0037053,38.4560313 15.1305624,37.8581482 16.0352692,36.553538 C14.4802165,36.1849869 13.2388331,36.4889909 12.4555549,37.7713261 C13.0529835,37.3691092 13.7674947,37.1683805 14.5635549,37.1134522 C13.9354496,37.601985 13.270788,37.9264922 12.5547429,38.0259706 M10.7660361,35.4438346 C11.258397,36.0650053 11.5871489,36.7238917 11.6868481,37.4326438 C12.1216902,35.9984332 11.5165925,34.8824017 10.1992842,33.9865896 C9.82809624,35.5261005 10.1351188,36.7552793 11.4291639,37.5313629 C11.023209,36.9393017 10.8215098,36.2328277 10.7660361,35.4438346 M10.9797504,41.2991399 C11.7860361,40.6794881 12.7745925,40.333212 13.8930135,40.1853866 C13.0509383,40.9303357 12.1429083,41.4474716 11.1420812,41.6499723 C13.224006,42.1273675 14.7593744,41.1847271 15.9166526,39.264515 C13.6905474,38.8833076 11.9683068,39.4229717 10.9797504,41.2991399 M8.7117203,38.2869433 C9.46278797,39.1204864 9.98633684,40.0211079 10.1913594,41.0103234 C10.6737504,38.9491203 9.72149474,37.4301126 7.78119398,36.2834528 C7.3974797,38.4884314 7.94250226,40.1924741 9.83781053,41.1723239 C9.21047218,40.3726996 8.86101353,39.3943685 8.7117203,38.2869433 M9.53794586,45.5607654 C10.3830887,44.8034131 11.4549835,44.3369023 12.6879308,44.0789671 C11.814412,44.9775636 10.8463068,45.6298687 9.74859248,45.9381759 C12.1076301,46.298627 13.7373293,45.1203266 14.8644421,42.885226 C12.3525323,42.6467815 10.4804872,43.3902119 9.53794586,45.5607654 M6.85169023,42.4204871 C7.75997594,43.2861772 8.41850226,44.2455239 8.73012632,45.3314335 C9.09338947,42.9955889 7.90338947,41.3826715 5.64635188,40.2666399 C5.40528421,42.7525881 6.15660752,44.6074938 8.34896842,45.5400091 C7.58281805,44.7021628 7.11244211,43.6423252 6.85169023,42.4204871 M8.38680301,50.0810854 C9.24932932,49.1797045 10.3830887,48.5759996 11.7129233,48.1902359 C10.8317353,49.2488079 9.82732932,50.0456478 8.65036692,50.4762147 C11.2673444,50.6713747 12.9530286,49.242986 13.9962917,46.6983126 C11.2220962,46.6476875 9.23271278,47.6207029 8.38680301,50.0810854 M5.25445714,46.8815757 C6.32353985,47.7533408 7.12752481,48.7488845 7.5628782,49.9135161 C7.7597203,47.3215083 6.31766015,45.6551813 3.74593083,44.6214157 C3.69556992,47.367324 4.67952481,49.3366425 7.1640812,50.1749951 C6.2519609,49.3204425 5.64430677,48.1975765 5.25445714,46.8815757 M13.3960511,50.7275686 C10.3634045,50.9080473 8.27713383,52.1405167 7.56569023,54.8978157 C8.42898346,53.8410156 9.61540451,53.0864477 11.0334346,52.5500742 C10.1629835,53.7827967 9.13480301,54.7375871 7.88830677,55.3078794 C10.7627128,55.2985138 12.4783068,53.5937117 13.3960511,50.7275686 M6.31817143,55.1147445 C5.24857744,54.2594325 4.48753985,53.085182 3.9471188,51.682359 C5.19080301,52.5427335 6.15507368,53.5608054 6.73128421,54.7960591 C6.72131429,51.9489005 5.0011188,50.2504265 2.1052391,49.3422113 C2.28853233,52.344536 3.53247218,54.4113079 6.31817143,55.1147445 M13.8365173,34.043796 C13.706397,34.8178546 13.4410436,35.4980036 12.9837053,36.0450083 C14.3352692,35.3977658 14.754006,34.2131372 14.5328782,32.6574262 C13.1462917,33.4200941 12.4440511,34.4662629 12.7380361,35.9245205 C12.9036902,35.2334871 13.2899609,34.6130759 13.8365173,34.043796 M13.1585624,54.9947628 C9.84624662,55.4754487 7.67126917,57.0195159 7.15206617,60.1139784 C7.99950977,58.871384 9.23092331,57.9343124 10.7371489,57.2156883 C9.89788571,58.6476208 8.85999098,59.7917493 7.54472782,60.5336609 C10.6995699,60.2562351 12.4212992,58.2276852 13.1585624,54.9947628 M5.83859248,60.467342 C4.58468271,59.6292426 3.63779549,58.4101888 2.91254737,56.9185187 C4.35869774,57.7495306 5.51316391,58.7774743 6.26244211,60.0800596 C5.98405113,56.9569938 3.93484812,55.2509261 0.669314286,54.520152 C1.15451729,57.8009151 2.71519398,59.9540029 5.83859248,60.467342 M7.17532932,65.3607694 C7.90926917,64.0495779 9.0529985,63.0087247 10.4899459,62.1632846 C9.78029173,63.6617892 8.84746466,64.8922336 7.60250226,65.7442549 C10.720788,65.1954782 12.2569233,63.025431 12.7068481,59.7416304 C9.44898346,60.5058171 7.41946466,62.2331473 7.17532932,65.3607694 M5.89790075,65.827027 C4.57471278,65.0982779 3.52378045,63.9665526 2.66892331,62.5429733 C4.18307368,63.2459036 5.42394586,64.1703189 6.28544962,65.4032945 C5.73199098,62.3159195 3.54014135,60.7928617 0.222712782,60.348626 C0.996276692,63.5749671 2.74075789,65.5847857 5.89790075,65.827027 M7.72725414,70.7323513 C8.37120902,69.2968751 9.46764511,68.105159 10.8884872,67.0886059 C10.2877353,68.7192421 9.42904361,70.0878931 8.20964511,71.0930555 C11.4138256,70.2336935 12.8139609,67.82748 12.9750135,64.3573788 C9.64710376,65.4559446 7.68865263,67.4452601 7.72725414,70.7323513 M6.43806617,71.3370688 C4.98884812,70.6991918 3.78529925,69.6135354 2.75916391,68.2064093 C4.40573534,68.8007486 5.78848722,69.6515043 6.8031188,70.8584079 C5.93522406,67.6864889 3.50537444,66.2993597 5.11278195e-05,66.1403967 C1.10926917,69.4360942 3.11961504,71.3747845 6.43806617,71.3370688 M8.92773534,76.9195045 C9.42904361,75.3961936 10.4135098,74.0723458 11.7469233,72.8937923 C11.3120812,74.6109975 10.5860662,76.0884926 9.45639699,77.2356586 C12.6160962,76.0297674 13.7800211,73.4415564 13.5726977,69.9033644 C10.312788,71.3664314 8.53941955,73.5901413 8.92773534,76.9195045 M7.68507368,77.6687568 C6.14561504,77.1733896 4.80913383,76.1991086 3.6188782,74.8788045 C5.35236692,75.3091184 6.84606617,76.026983 8.00411128,77.1460521 C6.78445714,74.0181769 4.17105865,72.865189 0.59722406,73.0709803 C2.07532932,76.2998526 4.32188571,78.0547736 7.68507368,77.6687568 M13.2153143,78.5521657 C12.9571188,80.344043 12.377585,81.9225353 11.3524722,83.2076549 C14.4334346,81.6491595 15.3404421,78.8954043 14.7506827,75.3215215 C11.5932842,77.1493427 10.0287729,79.5963095 10.7813744,82.9426322 C11.1267429,81.3400929 11.9864571,79.8917073 13.2153143,78.5521657 M9.59674286,83.8336349 C7.98059248,83.4903964 6.51654737,82.6391344 5.1639609,81.4221057 C6.9731188,81.6790283 8.56907368,82.251852 9.86567519,83.2673926 C8.2919609,80.2159614 5.51163008,79.3181243 1.9012391,79.9025917 C3.74874286,83.0289481 6.21975038,84.5783309 9.59674286,83.8336349 M15.1914045,84.0573981 C15.1218707,85.8654755 14.7110586,87.4953523 13.8247579,88.8784315 C16.7270286,87.0121352 17.341585,84.1796578 16.380382,80.6850035 C13.4313293,82.8287256 12.1314045,85.4227585 13.2296301,88.6718809 C13.4065323,87.044029 14.1090286,85.5146431 15.1914045,84.0573981 M12.1457203,89.6808402 C10.501194,89.5059303 8.95662256,88.8103407 7.48414135,87.738353 C9.30991579,87.8064439 10.9567429,88.2129638 12.3535549,89.0913103 C10.4687278,86.2175734 7.60914887,85.6093122 4.08005113,86.5615713 C6.24378045,89.4806177 8.86356992,90.7680154 12.1457203,89.6808402 M16.8783669,94.2644416 C19.5697353,92.1093288 19.882382,89.2297701 18.5622617,85.8533254 C15.854788,88.2881422 14.8319759,91.0013973 16.2645774,94.1209193 C16.2691789,92.4826893 16.8083218,90.890022 17.7329684,89.3289954 C17.8533744,91.1350477 17.6143519,92.7973247 16.8783669,94.2644416 M15.2921263,95.2346727 C13.638397,95.2301164 12.0291489,94.6947554 10.4528782,93.7809714 C12.2760962,93.6612429 13.9556451,93.8976624 15.4380962,94.627424 C13.2613293,91.9620096 10.3544571,91.6519305 6.9437203,92.9600845 C9.40169023,95.6424583 12.1416301,96.6526833 15.2921263,95.2346727 M21.2733143,90.7705466 C18.8337504,93.4676017 18.1028782,96.2727415 19.8557955,99.2305161 C19.687585,97.600133 20.0574947,95.9606374 20.812397,94.3117761 C21.121209,96.0950472 21.0588331,97.7747898 20.4800662,99.3094913 C22.9321564,96.8908746 22.9418707,93.9923314 21.2733143,90.7705466 M19.0037504,100.437167 C17.3579459,100.601445 15.7014045,100.234919 14.0379609,99.487945 C15.8394496,99.1836878 17.5348481,99.2441849 19.0842767,99.818021 C16.6403669,97.388773 13.7158556,97.3791542 10.4613143,99.0313061 C13.1864271,101.445113 16.0194195,102.171584 19.0037504,100.437167 M24.4856752,95.3819919 C22.3418857,98.3167321 21.9080662,101.182622 23.958803,103.940174 C23.6226376,102.338394 23.8189684,100.670042 24.3967128,98.9508121 C24.8913744,100.694596 25.0046226,102.369529 24.589209,103.956374 C26.774412,101.299313 26.4809383,98.4157042 24.4856752,95.3819919 M23.2394346,105.22985 C21.6189383,105.561951 19.9342767,105.368816 18.200788,104.795486 C19.9606075,104.306447 21.6534496,104.194059 23.2537504,104.603111 C20.570818,102.441923 17.6596,102.730739 14.5955098,104.708411 C17.5599008,106.832136 20.4516902,107.259412 23.2394346,105.22985 M28.1622767,99.6383017 C26.3380361,102.779086 26.2061263,105.671554 28.5342316,108.206103 C28.0316451,106.643051 28.0526075,104.96584 28.4478256,103.197503 C29.1214346,104.880283 29.4095398,106.53446 29.1620812,108.152693 C31.0571338,105.28655 30.4650737,102.451288 28.1622767,99.6383017 M27.9531639,109.559566 C26.3779158,110.058477 24.6804722,110.036961 22.8963669,109.645123 C24.5945774,108.977883 26.2674797,108.692357 27.9030586,108.938142 C25.0076902,107.062734 22.1429985,107.648214 19.3020812,109.930902 C22.4722617,111.736701 25.393194,111.865036 27.9531639,109.559566 M32.2645173,103.49442 C30.7782316,106.802773 30.9489985,109.694229 33.5324872,111.977424 C32.8675699,110.475628 32.712397,108.803733 32.9209985,107.004768 C33.7679308,108.610091 34.2278256,110.228325 34.1513895,111.863011 C35.7363519,108.816389 34.8490286,106.054534 32.2645173,103.49442 M33.0953444,113.384043 C31.5799158,114.040399 29.890397,114.194805 28.0761263,113.988002 C29.6953444,113.150662 31.3273444,112.69377 32.9803068,112.770973 C29.9039459,111.202099 27.1156902,112.078674 24.5291338,114.638535 C27.871615,116.111474 30.7905023,115.938842 33.0953444,113.384043 M36.7481714,106.907568 C35.6167128,110.351344 36.0901564,113.211665 38.896818,115.215408 C38.0800511,113.791576 37.7502767,112.143221 37.7697053,110.333878 C38.7787128,111.842508 39.4057955,113.402775 39.5024271,115.03898 C40.7591489,111.844786 39.5880662,109.192281 36.7481714,106.907568 M38.6112692,116.660757 C37.1732992,117.471518 35.5065323,117.795266 33.6797353,117.776282 C35.2048782,116.77846 36.779615,116.154758 38.4318105,116.060849 C35.2082015,114.818507 32.5275699,115.977317 30.2214496,118.788279 C33.6999308,119.907601 36.5858406,119.440078 38.6112692,116.660757 M41.5659459,109.845851 C40.8010737,113.386575 41.5710586,116.18083 44.5730286,117.887404 C43.6113143,116.555456 43.1115398,114.950133 42.9407729,113.146612 C44.1029083,114.544119 44.8900211,116.033005 45.1553744,117.648453 C46.0720962,114.344909 44.6290135,111.82327 41.5659459,109.845851 M44.4390737,119.352749 C43.0939008,120.305515 41.4721263,120.801641 39.6529985,120.969717 C41.0625925,119.818501 42.5665173,119.039633 44.1987729,118.775622 C40.8616602,117.86842 38.3167729,119.296302 36.3174195,122.330268 C39.8958556,123.087873 42.7173444,122.326471 44.4390737,119.352749 M46.6649233,112.27029 C46.274818,115.87227 47.3336752,118.573881 50.4974647,119.96101 C49.4012842,118.734363 48.7363669,117.189283 48.3782165,115.415125 C49.6796752,116.682779 50.618382,118.082564 51.0519459,119.664094 C51.6186977,116.285371 49.9194647,113.925733 46.6649233,112.27029 M45.926382,123.532109 C47.208412,122.240914 48.6223519,121.313461 50.2193293,120.883654 C46.8042466,120.322474 44.4224571,122.006773 42.7531338,125.228305 C46.3893444,125.614068 49.1167579,124.566887 50.5181714,121.433696 C49.2803669,122.519353 47.718412,123.177986 45.926382,123.532109 M51.9914195,114.16038 C51.9799158,117.783116 53.3143519,120.357405 56.6072391,121.415724 C55.3891188,120.308046 54.5649383,118.838904 54.024006,117.11132 C55.4507278,118.239502 56.5310586,119.536012 57.1287429,121.063373 C57.3368331,117.643391 55.4001113,115.472331 51.9914195,114.16038 M56.7818406,122.877272 C55.6641865,124.084176 54.1804571,124.899747 52.4354647,125.436374 C53.5758707,124.02292 54.8844872,122.953716 56.4262466,122.361402 C52.9725624,122.155611 50.7789233,124.071267 49.4554797,127.448471 C53.1134195,127.459608 55.7160812,126.138292 56.7818406,122.877272 M62.8374195,122.235599 C61.5088632,121.257774 60.5356451,119.882035 59.8162767,118.220264 C61.3547128,119.196571 62.5636301,120.373605 63.3180211,121.831357 C63.1669383,118.40859 61.0152241,116.448384 57.485615,115.493847 C57.853991,119.096333 59.4512241,121.52229 62.8374195,122.235599 M63.1631038,123.670822 C62.1768481,124.98581 60.7874496,125.950979 59.1086677,126.663528 C60.094412,125.139457 61.2846677,123.942426 62.756382,123.194945 C59.2996301,123.344036 57.3184271,125.474596 56.3554346,128.971022 C59.9952241,128.607027 62.4447579,127.024485 63.1631038,123.670822 M69.1189835,122.411521 C67.695585,121.575193 66.5835549,120.307286 65.6936752,118.727022 C67.3259308,119.540062 68.6537203,120.589015 69.5545925,121.960198 C69.0466376,118.571603 66.700382,116.842501 63.0905023,116.254237 C63.8336451,119.800782 65.6773143,122.05031 69.1189835,122.411521 M69.5949835,123.807256 C68.7503519,125.214636 67.4685774,126.314973 65.8739008,127.198382 C66.6947579,125.581668 67.7528481,124.268958 69.1386677,123.373399 C65.7164271,123.879144 63.9711789,126.202839 63.376818,129.773684 C66.9585774,129.039366 69.2291639,127.212811 69.5949835,123.807256 M75.3846977,121.94172 C73.8823068,121.256508 72.6429684,120.109848 71.5925474,118.628303 C73.3022617,119.272255 74.7305173,120.176674 75.7714797,121.447618 C74.9107429,118.129645 72.3970436,116.651897 68.7447278,116.437247 C69.8547128,119.887604 71.9233444,121.935391 75.3846977,121.94172 M72.6580511,127.036129 C73.3060962,125.344236 74.2194947,123.926985 75.5061263,122.897776 C72.1534195,123.749544 70.6604872,126.239289 70.4439609,129.853419 C73.9303669,128.755106 75.997209,126.707318 76.0033444,123.279995 C75.3123519,124.768881 74.1540511,125.997047 72.6580511,127.036129 M81.5691188,120.832522 C80.0020511,120.305008 78.6484421,119.289721 77.4502617,117.925626 C79.2157053,118.388593 80.7319008,119.141136 81.9022165,120.30349 C80.6979008,117.089552 78.0420662,115.876067 74.3877053,116.037561 C75.8532842,119.356546 78.1256602,121.182342 81.5691188,120.832522 M79.3890286,126.177526 C79.8565925,124.427668 80.6186526,122.927898 81.7889684,121.7701 C78.5436301,122.96131 77.3191188,125.591034 77.4832391,129.209213 C80.8339008,127.757031 82.6765474,125.508262 82.3245323,122.09967 C81.792803,123.650572 80.7666677,124.989354 79.3890286,126.177526 M87.6016902,119.091776 C85.9898857,118.731579 84.5381113,117.85956 83.2011188,116.62456 C85.0066977,116.903504 86.5942165,117.497844 87.8767579,118.529584 C86.3442015,115.459169 83.5766526,114.525641 79.9585925,115.062014 C81.7639158,118.213177 84.2142165,119.793694 87.6016902,119.091776 M85.9942316,124.63194 C86.2762015,122.845379 86.8764421,121.273467 87.9184271,120.003535 C84.8180361,121.52229 83.8747278,124.264148 84.4159158,127.844106 C87.5965774,126.057291 89.1961113,123.632347 88.4867128,120.276911 C88.119615,121.874388 87.2412391,123.310877 85.9942316,124.63194 M83.1126677,4.192674 C91.8363519,6.44802461 99.8289083,10.5582809 106.600788,16.1207196 C126.608382,32.5551634 133.770878,59.9638748 124.294337,84.1545984 C119.476051,96.4623327 110.578532,107.2098 98.4389985,114.286437 C96.4082015,114.092543 94.8349985,114.723838 93.9034496,116.513944 C94.6056902,115.966433 95.4436752,115.625725 96.382382,115.431831 C96.3123368,115.469547 96.2445925,115.50625 96.1755699,115.543713 L96.329209,115.828985 C95.6277353,116.346121 94.8802466,116.710116 94.0747278,116.877938 C96.0497955,117.320909 97.5447729,116.540775 98.6997504,114.89242 C111.011841,107.741364 120.031044,96.8561964 124.91375,84.3907647 C134.477976,59.9719748 126.97957,32.4339161 106.812968,15.8688595 C100.006066,10.2780706 91.9692842,6.14427368 83.1993293,3.87778554 C82.9472692,3.81197284 82.8997203,3.9618233 82.8966526,3.9727077 C82.8946075,3.98308586 82.8695549,4.13091131 83.1126677,4.192674 M84.0902316,4.69588803 C82.5944872,4.4657967 81.5614496,5.21201147 80.8456602,6.62926266 C82.4377805,6.78088499 83.6239459,6.31057731 84.2234195,4.93509188 C83.6865774,5.41400584 83.0073444,5.70990986 82.2256,5.87241661 C82.7803368,5.303643 83.3948932,4.89054174 84.0902316,4.69588803 M83.3754647,1.91859208 C83.9511639,2.46711563 84.3665774,3.07512373 84.5641865,3.76311957 C84.7955398,2.28284007 84.0419158,1.25995883 82.612382,0.551712928 C82.4574647,2.12742084 82.9329534,3.30319004 84.3228632,3.89499809 C83.8379158,3.36419335 83.5390737,2.69138506 83.3754647,1.91859208 M87.9337654,6.19338008 C87.1351489,6.82189137 86.1506827,7.17854558 85.0335398,7.33801481 C85.8669233,6.58471252 86.769585,6.05770467 87.7681113,5.84431964 C85.6810737,5.38793388 84.1564421,6.34753367 83.0206376,8.2809083 C85.2500662,8.63756251 86.9661714,8.07916706 87.9337654,6.19338008 M86.8961263,2.18741165 C87.6556301,3.01310791 88.1891489,3.90638875 88.4038857,4.89636364 C88.8640361,2.82908548 87.8966977,1.31994964 85.943615,0.194046215 C85.5841865,2.40282168 86.1463368,4.10154872 88.0513594,5.06064226 C87.4178857,4.26937111 87.0571789,3.29357126 86.8961263,2.18741165 M91.9917805,7.48989027 C89.7071338,6.8094882 87.9276301,7.75212857 86.4986075,9.81004108 C88.9522316,10.3919772 90.9096602,9.91382264 92.1482316,7.89236025 C91.2041564,8.52669343 90.0778105,8.84158188 88.8200662,8.92713839 C89.8119459,8.15763605 90.8626226,7.64404387 91.9917805,7.48989027 M91.2877504,3.43456232 C92.0666827,4.41719656 92.5843519,5.45501221 92.7392692,6.57484062 C93.4277053,4.31214936 92.4757053,2.55014088 90.3973594,1.13516783 C89.8096451,3.56492209 90.2940812,5.50335923 92.3330586,6.73000671 C91.6937053,5.79546637 91.3754346,4.67918173 91.2877504,3.43456232 M96.2289985,9.52223708 C93.7809985,8.58263422 91.7494346,9.46629628 90.0059759,11.6026778 C92.645194,12.4471053 94.8337203,12.0866542 96.3644872,9.97659783 C95.2754647,10.5921997 94.0128632,10.8420348 92.626788,10.8303911 C93.7807429,10.0692419 94.9771338,9.59716231 96.2289985,9.52223708 M95.7675699,5.08975173 C96.5347429,6.23134895 97.0132992,7.41395254 97.0882015,8.65502819 C98.0361113,6.2318552 97.1446977,4.21975846 94.9881263,2.49293445 C94.1335248,5.10822991 94.4965323,7.27321461 96.6283068,8.78994423 C96.007615,7.71086907 95.7542767,6.46118715 95.7675699,5.08975173 M100.482577,11.9960352 C97.8926977,10.7628065 95.5985925,11.552812 93.5084872,13.7377936 C96.3169383,14.8834409 98.7380962,14.6781559 100.592758,12.5040586 C99.3493293,13.0834635 97.9509835,13.2492609 96.4381113,13.116623 C97.7643669,12.386102 99.1100511,11.971482 100.482577,11.9960352 M100.321014,7.18436747 C101.059299,8.49555896 101.478036,9.82826613 101.452728,11.1888171 C102.697946,8.62439997 101.899841,6.35183681 99.6946977,4.28278677 C98.5371639,7.06261397 98.7444872,9.45971501 100.940683,11.2974081 C100.355525,10.0662044 100.18757,8.68034077 100.321014,7.18436747 M82.4155398,3.98662962 C81.6979609,3.98207336 81.0016,3.74616014 80.3192992,3.34723393 C81.1097353,3.29914003 81.8390737,3.40444035 82.4797053,3.72337882 C81.5404872,2.56305029 80.2806977,2.42256549 78.7972241,2.98501095 C79.8591489,4.152427 81.0460812,4.59590335 82.4155398,3.98662962 M96.9634496,16.2999327 C99.9383218,17.8191936 102.614352,17.8171685 104.857841,15.6020649 C103.437254,16.1232509 101.885014,16.1751417 100.238698,15.8906283 C101.762818,15.2102262 103.278502,14.8788846 104.784472,15.0348101 C102.056803,13.4396115 99.4641113,14.0969791 96.9634496,16.2999327 M105.330006,14.338208 C104.802878,12.9331068 104.750728,11.3961272 105.037299,9.76498469 C105.724713,11.2741205 106.0596,12.7759157 105.901615,14.2660671 C107.511886,11.5667339 106.849525,8.99902611 104.623931,6.52193733 C103.090352,9.46882754 103.093931,12.1190543 105.330006,14.338208 M100.925856,19.0088847 C103.755014,20.7787401 106.421841,21.008072 108.851435,18.995469 C107.392502,19.3916108 105.840006,19.3088387 104.223856,18.8840937 C105.801405,18.3378483 107.342397,18.1391445 108.829705,18.4246704 C106.253374,16.5991273 103.611089,17.0289349 100.925856,19.0088847 M109.433014,17.7776809 C109.03345,16.3315734 109.116532,14.7958594 109.545495,13.1955982 C110.097675,14.758903 110.297841,16.2834795 110.010502,17.7559121 C111.851871,15.20567 111.419585,12.5901214 109.419465,9.93002269 C107.631014,12.7318718 107.400938,15.3729861 109.433014,17.7776809 M104.323811,22.1792849 C107.112066,24.2878226 109.874247,24.7723053 112.598081,22.8943652 C111.037149,23.1730567 109.4256,22.9449904 107.779795,22.3516636 C109.478262,21.9276779 111.105149,21.8621183 112.629525,22.2964822 C110.11148,20.1545319 107.314532,20.3605763 104.323811,22.1792849 M113.321284,21.6765772 C113.03957,20.1309912 113.269134,18.5360457 113.868863,16.904397 C114.29757,18.5874303 114.36378,20.1983227 113.925104,21.7079648 C116.088577,19.2144228 115.880743,16.443455 114.043465,13.4839085 C111.913991,16.2444981 111.424698,18.9795221 113.321284,21.6765772 M108.231254,26.1974034 C110.834938,28.6289295 113.585615,29.4098225 116.54975,27.7882989 C114.935645,27.9077742 113.326141,27.5085949 111.718683,26.7345363 C113.486427,26.4811574 115.143735,26.5851921 116.644337,27.1843408 C114.319044,24.7492709 111.458442,24.6652331 108.231254,26.1974034 M117.413044,26.6294891 C117.292382,25.031253 117.697826,23.4365606 118.478292,21.845412 C118.734698,23.5970424 118.629374,25.2370442 118.022998,26.7231456 C120.483525,24.4202074 120.568908,21.5887425 119.022036,18.3915109 C116.565089,20.9703563 115.77772,23.6934833 117.413044,26.6294891 M120.111826,32.4620131 C118.007149,29.7401517 115.109735,29.3533755 111.664487,30.5744542 C114.050111,33.3188438 116.764232,34.4007033 119.952051,33.0649587 C118.297811,33.0168648 116.704156,32.4415099 115.152171,31.4854539 C116.978457,31.4145786 118.649826,31.6940295 120.111826,32.4620131 M120.952878,31.9757585 C121.000683,30.3395535 121.581495,28.7615675 122.548066,27.2233221 C122.619389,29.0316526 122.338186,30.6888671 121.562577,32.1362402 C124.310442,30.0530151 124.70157,27.1823158 123.470156,23.771446 C120.697239,26.1343751 119.604126,28.8205458 120.952878,31.9757585 M122.971916,38.0014174 C121.163525,35.0800929 118.320818,34.3986783 114.767946,35.257281 C116.854472,38.2322681 119.438983,39.5875035 122.748487,38.5858848 C121.109329,38.368956 119.584186,37.6328663 118.141359,36.5229098 C119.963811,36.6390945 121.599645,37.0886459 122.971916,38.0014174 M123.858728,37.6067943 C124.078322,35.9822332 124.82172,34.4720848 125.942698,33.0431898 C125.824848,34.8494953 125.370322,36.4682346 124.447976,37.8285325 C127.399329,36.0374146 128.08751,33.222656 127.22166,29.7042078 C124.216367,31.7692078 122.848186,34.3293219 123.858728,37.6067943 M125.236878,43.8058444 C123.743946,40.7141663 120.988412,39.745454 117.36345,40.234493 C119.127615,43.4061589 121.555164,45.0203419 124.953119,44.3637336 C123.344893,43.9789825 121.905134,43.0920298 120.586036,41.8393103 C122.387525,42.1415425 123.965585,42.7566381 125.236878,43.8058444 M126.722653,43.784835 C129.845029,42.3065805 130.825149,39.5786441 130.329976,35.9898269 C127.126307,37.7356354 125.496863,40.1403302 126.160758,43.5043717 C126.546773,41.9117043 127.444833,40.4850875 128.708713,39.1794648 C128.402968,40.9622295 127.782788,42.5270531 126.722653,43.784835 M126.882427,49.8137846 C125.719525,46.5836466 123.07954,45.3349772 119.423645,45.4521744 C120.846021,48.7876127 123.093856,50.643784 126.540382,50.3390206 C124.980728,49.7917626 123.642713,48.7585033 122.460893,47.3782084 C124.221991,47.8654755 125.72745,48.6390279 126.882427,49.8137846 M127.831615,49.6069808 C128.383284,48.0629136 129.426547,46.7380534 130.820036,45.5668404 C130.328698,47.308852 129.547976,48.8007753 128.362577,49.9438912 C131.622998,48.7947002 132.88151,46.1791517 132.766472,42.5602125 C129.396126,43.9668324 127.522547,46.1918079 127.831615,49.6069808 M120.928337,50.8521065 C121.991029,54.3163858 124.033329,56.3925233 127.494683,56.4426422 C126.000728,55.7371807 124.777495,54.5748272 123.745991,53.0788539 C125.447525,53.7458403 126.864277,54.6692431 127.887089,55.9541095 C127.072111,52.6257588 124.576562,51.1125729 120.928337,50.8521065 M128.853405,55.8452654 C129.565871,54.3685297 130.740788,53.1568166 132.249314,52.1367198 C131.580307,53.8192468 130.644923,55.2220698 129.347044,56.2373572 C132.70972,55.4273548 134.236908,52.9596317 134.500472,49.3455019 C131.000773,50.3985051 128.905555,52.4212331 128.853405,55.8452654 M121.857585,56.3770827 C122.553435,59.9317278 124.366427,62.2035316 127.802472,62.6080266 C126.390322,61.7562584 125.296442,60.4741764 124.428036,58.8812559 C126.049044,59.7188491 127.360728,60.7804586 128.24575,62.1668284 C127.782532,58.7713993 125.459795,57.0124283 121.857585,56.3770827 M129.218202,62.1584752 C130.079961,60.7597022 131.375284,59.6748052 132.982743,58.8156963 C132.140923,60.4200075 131.065961,61.7215802 129.667359,62.5958766 C133.097269,62.1356939 134.874728,59.8378182 135.514337,56.273048 C131.922352,56.9605376 129.628502,58.756718 129.218202,62.1584752 M127.951765,68.3818254 C127.844653,64.9552619 125.718758,62.9664527 122.204487,61.9671122 C122.522502,65.5736481 124.089059,68.0218806 127.465284,68.7777141 C126.151555,67.7849549 125.195209,66.3960538 124.49757,64.7216268 C126.023735,65.7197017 127.217059,66.9121772 127.951765,68.3818254 M128.919359,68.4737101 C129.923254,67.1696061 131.325946,66.225447 133.014698,65.5354261 C132.008247,67.044562 130.802908,68.2266593 129.320457,68.9549022 C132.77951,68.8483362 134.788833,66.7453673 135.798352,63.262863 C132.153961,63.5802827 129.684232,65.1311843 128.919359,68.4737101 M121.962141,67.5624573 C121.904367,71.1849402 123.204036,73.7779606 126.482608,74.8780452 C125.278547,73.7531542 124.475074,72.2746466 123.956126,70.5394695 C125.369044,71.687648 126.432247,72.9975738 127.008968,74.5317691 C127.262562,71.1153306 125.353961,68.9174395 121.962141,67.5624573 M127.961735,74.7228791 C129.096006,73.5298973 130.591495,72.7360949 132.343134,72.220984 C131.182021,73.6195038 129.861901,74.6750383 128.310427,75.2445713 C131.761811,75.4951658 133.979224,73.6063413 135.34945,70.2483748 C131.692021,70.1906622 129.071465,71.4798317 127.961735,74.7228791 M121.138728,73.1051523 C120.69954,76.6995382 121.723119,79.4150715 124.867991,80.8432071 C123.78945,79.6031439 123.142938,78.0494579 122.808818,76.2697307 C124.094171,77.5586471 125.014217,78.9698232 125.427074,80.5551499 C126.036006,77.1814897 124.36975,74.8010949 121.138728,73.1051523 M126.354788,80.8421946 C127.608442,79.7740038 129.177555,79.1335956 130.974442,78.8045321 C129.675029,80.076236 128.248818,80.9877419 126.646983,81.3955275 C130.054141,82.0010043 132.45766,80.3498649 134.169931,77.1495958 C130.538577,76.7154851 127.798638,77.7277351 126.354788,80.8421946 M121.06766,81.8526726 C122.211645,83.2638488 122.978818,84.7618471 123.222698,86.3821051 C124.183134,83.0907108 122.773029,80.5510999 119.737059,78.5314094 C118.925405,82.0640326 119.658833,84.8696787 122.636006,86.6121965 C121.691675,85.2663268 121.212863,83.6544219 121.06766,81.8526726 M124.116412,86.7635657 C125.474367,85.8292785 127.101254,85.3526426 128.924217,85.2101328 C127.498517,86.341605 125.984878,87.1030073 124.348788,87.3442362 C127.674141,88.2952297 130.237435,86.8992411 132.276412,83.8933726 C128.709735,83.0894451 125.87751,83.8126255 124.116412,86.7635657 M118.751826,87.225014 C119.741405,88.7455405 120.347525,90.3154265 120.420382,91.9516315 C121.719795,88.7731312 120.585014,86.1067043 117.775284,83.7863004 C116.599089,87.2151421 117.034698,90.0795133 119.814262,92.1199601 C119.016156,90.6852432 118.7076,89.032332 118.751826,87.225014 M121.269359,92.4219391 C122.718066,91.6334524 124.387134,91.3279296 126.21342,91.3712141 C124.677284,92.3497983 123.092577,92.950972 121.439871,93.0231128 C124.648908,94.3102574 127.343089,93.1861258 129.685254,90.4047799 C126.222367,89.2373638 123.330066,89.6697026 121.269359,92.4219391 M115.886623,92.3313201 C116.70978,93.94525 117.148457,95.5675331 117.051059,97.2037381 C118.675901,94.1768601 117.825645,91.4061454 115.275389,88.8111 C113.745645,92.1014819 113.878577,94.9939501 116.429856,97.308279 C115.785389,95.7999025 115.65348,94.1254756 115.886623,92.3313201 M117.845329,97.759096 C119.369705,97.1232441 121.061014,96.9898468 122.873495,97.22171 C121.242517,98.0375343 119.603359,98.4706325 117.951931,98.3736854 C121.008352,99.9843246 123.807089,99.1434408 126.427389,96.6172456 C123.104592,95.0995035 120.183916,95.2323946 117.845329,97.759096 M112.500171,97.1153972 C113.151795,98.8055179 113.417916,100.464251 113.149495,102.081725 C115.082382,99.2388692 114.527134,96.394495 112.261149,93.5511332 C110.396262,96.6671114 110.225239,99.5585671 112.520111,102.121972 C112.039765,100.556642 112.08169,98.8753806 112.500171,97.1153972 M113.881389,102.714539 C115.464051,102.239422 117.160217,102.280428 118.938698,102.697074 C117.230262,103.339 115.55557,103.603517 113.923314,103.33976 C116.793119,105.251619 119.666247,104.702842 122.536307,102.458629 C119.391435,100.613848 116.472547,100.443748 113.881389,102.714539 M108.632863,101.525861 C109.103495,103.275213 109.195269,104.951665 108.758382,106.532435 C110.978608,103.902712 110.723991,101.017331 108.767841,97.9575466 C106.586983,100.865709 106.114051,103.722486 108.12772,106.508135 C107.813284,104.901546 108.032111,103.236738 108.632863,101.525861 M109.419465,107.239162 C111.042006,106.925033 112.726923,107.142721 114.452487,107.738579 C112.686532,108.20585 110.992156,108.294697 109.39569,107.862105 C112.050502,110.060755 114.964532,109.808642 118.055209,107.870205 C115.119705,105.711295 112.23354,105.243519 109.419465,107.239162 M104.323555,105.517401 C104.608337,107.303456 104.524232,108.982693 103.925269,110.510307 C106.409059,108.123078 106.457886,105.225547 104.832277,101.980728 C102.357179,104.649433 101.589495,107.443435 103.30151,110.422978 C103.154006,108.788292 103.546668,107.154618 104.323555,105.517401 M104.508638,111.279809 C106.156487,111.13654 107.807916,111.52205 109.461645,112.292312 C107.657344,112.573282 105.961179,112.491522 104.420442,111.897436 C106.830608,114.355793 109.755374,114.403381 113.031901,112.795526 C110.33951,110.344762 107.515976,109.584119 104.508638,111.279809 M99.6205624,109.043443 C99.7166827,110.85152 99.4579759,112.513038 98.7005173,113.966992 C101.421029,111.848836 101.772277,108.974846 100.495871,105.579417 C97.7554195,107.978796 96.6986075,110.678129 98.0877504,113.814864 C98.1151038,112.178405 98.6757203,110.592319 99.6205624,109.043443 M99.2013143,114.793954 C100.854532,114.81952 102.456623,115.374625 104.020111,116.308912 C102.195359,116.406365 100.519389,116.149189 99.0486977,115.40019 C101.188653,118.09522 104.09169,118.44099 107.519044,117.176627 C105.097886,114.464891 102.371495,113.417456 99.2013143,114.793954" id="Fill-1" fill="#FFFFFF" mask="url(#mask-2)"></path>
                </g>
                <path d="M64.3453068,30.6978024 C64.3992466,31.5609613 64.4828406,32.6321895 64.5434271,33.6821552 C64.6421038,35.3758197 64.7717128,37.1049219 64.7990662,37.5114419 C64.4876977,37.2504692 63.137412,36.0610312 61.821382,34.9389247 C60.9836526,34.2218194 60.1520586,33.4768702 59.5098932,32.9303717 L57.6979233,33.7669524 L60.0124797,35.7742397 L64.0638481,39.290916 C64.3542541,39.5308793 64.9506602,39.890571 65.7252466,39.5650512 C66.0872316,39.4121633 66.6943744,39.0438653 66.6590962,38.1521032 L66.3259985,32.8592433 L66.1217429,29.8774218 L64.3453068,30.6978024 Z" id="Fill-4" fill="#EC6929"></path>
                <path d="M56.5773549,37.3597689 L57.284197,38.8605516 C57.8315203,40.0229051 57.3325128,41.40725 56.1673098,41.9451422 C55.0023624,42.4830345 53.6047835,41.9745048 53.0572045,40.8121513 L52.350618,39.3113686 L51.1634301,36.7907422 L49.5081669,37.555182 L50.6950992,40.0758084 L51.4019414,41.576338 C52.3764376,43.6456411 54.8566481,44.5412001 56.9375504,43.5803347 C59.0105278,42.6232662 59.9101218,40.1671868 58.9356256,38.0978837 L58.2287835,36.5973541 L57.0418511,34.0767277 L55.3901669,34.8391425 L56.5773549,37.3597689 Z" id="Fill-6" fill="#EC6929"></path>
                <path d="M38.954797,49.8952405 C37.6852932,50.4814797 36.1627068,49.9261218 35.5655338,48.6584679 C35.3354586,48.1699352 35.2779398,47.6479899 35.3635789,47.1549009 C35.4995789,46.3646422 36.0095789,45.6553838 36.7887669,45.2956921 C37.5735789,44.933216 38.4501654,45.0020662 39.1462707,45.4085862 C39.5854586,45.6591807 39.9523008,46.0383631 40.1823759,46.5268958 C40.7792932,47.7945497 40.2301805,49.3064699 38.954797,49.8952405 M36.0162256,43.6554371 C35.1554887,44.0528446 34.491594,44.6952778 34.0593083,45.4599707 L31.7728722,40.6050185 L30.1183759,41.368952 L33.2934135,48.1109569 L33.9110376,49.4224015 C34.9338496,51.5939675 37.5429023,52.5416704 39.7263158,51.5334704 C41.9125414,50.5240049 42.8535489,47.9373126 41.8309925,45.7657467 C41.6149774,45.3073359 41.3248271,44.9023347 40.9876391,44.5580836 C39.7217143,43.2825829 37.7376992,42.8606222 36.0162256,43.6554371" id="Fill-8" fill="#EC6929"></path>
                <path d="M47.6001023,45.8754007 C46.3326436,46.4606275 44.8082677,45.9072946 44.2108391,44.6386282 C43.9868992,44.1627518 43.9255459,43.6484002 44.0017263,43.1659425 C44.1282677,42.3630276 44.6431248,41.6408597 45.4340722,41.2758524 C46.2278316,40.9093263 47.114388,40.9842515 47.8196962,41.4029215 C48.2450797,41.6540223 48.6006737,42.0324453 48.8246135,42.5083217 C49.4222977,43.7769881 48.872418,45.2878958 47.6001023,45.8754007 M44.6615308,39.6355974 C42.9341774,40.4331967 41.9849895,42.2235553 42.1690496,44.0121419 C42.2191549,44.4827028 42.3439068,44.9509854 42.5563429,45.4025618 C43.5791549,47.5741278 46.1897414,48.5175275 48.3700872,47.5105932 C50.5563128,46.5011276 51.5019218,43.9159542 50.4791098,41.7443882 C50.266418,41.2928118 49.9844481,40.8974293 49.6533955,40.5562158 C48.387215,39.2675525 46.3916962,38.8367325 44.6615308,39.6355974" id="Fill-10" fill="#EC6929"></path>
                <path d="M72.9053053,34.2159722 C71.6358015,34.8019583 70.1144932,34.249891 69.5160421,32.9791996 C69.2875008,32.4934513 69.2284481,31.9687216 69.3151098,31.4776576 C69.4485534,30.6894239 69.9600872,29.9761155 70.7392752,29.6164238 C71.3044932,29.3554511 71.912403,29.325076 72.4653504,29.4756859 L72.4607489,29.4815078 L71.8922075,30.2877133 L71.1022827,31.4004542 L71.1007489,31.3974167 C70.812388,31.808493 70.9136211,32.3696728 71.3264782,32.655958 C71.7408692,32.939712 72.3073654,32.8420055 72.5985383,32.4319417 L74.5840872,29.6419895 L74.5769293,29.6417364 C74.7216211,29.4394889 74.768403,29.2007913 74.7292902,28.9777875 C74.6906887,28.7451649 74.5633805,28.5284892 74.3558015,28.3857263 C74.106809,28.2110695 73.8396662,28.0685597 73.5643429,27.9498437 L73.547982,27.9455406 C72.4410647,27.4666266 71.1436962,27.4329609 69.9667338,27.9761688 C68.2483278,28.7697181 67.3009293,30.548686 67.4734857,32.327907 C67.5220571,32.8030241 67.6457865,33.2847225 67.8615459,33.7431332 C68.8856361,35.9177367 71.4964782,36.8608833 73.6768241,35.8542021 C75.3195609,35.0958373 76.264403,33.4414073 76.1920571,31.7452115 L74.3637263,31.7986211 C74.4184331,32.7979616 73.8703429,33.7704708 72.9053053,34.2159722" id="Fill-12" fill="#EC6929"></path>
                <path d="M74.3080737,20.992201 L72.6594571,21.7533502 L75.8240135,28.4728269 L76.8849158,30.7253931 C77.6610361,32.3661543 79.6304797,33.088069 81.2885549,32.347423 L81.3044045,32.3400824 L81.3130962,32.3360324 L81.3279233,32.329198 L81.3368707,32.325148 L81.5160737,32.2423758 L80.7473669,30.6099678 L80.5592165,30.6967899 C79.8020135,31.0463566 78.8909158,30.7157743 78.5319985,29.9614595 L77.4726301,27.7116777 L77.0564496,26.8282688 L78.6253068,26.1040759 L77.8542992,24.4668585 L76.2854421,25.1910513 L74.3080737,20.992201 Z" id="Fill-14" fill="#EC6929"></path>
                <path d="M28.6534872,72.6131517 L30.3389158,76.192097 L32.3224195,75.2762879 C34.2683444,74.3776915 34.5382992,73.2252098 34.0886301,72.2709257 C33.6739835,71.390048 32.4259534,70.8488651 30.0807203,71.9542653 L28.6534872,72.6131517 Z M26.2333519,67.4741923 L27.8842692,70.9797311 L29.5339083,70.2180757 C31.4146451,69.3721294 31.7807203,68.0409409 31.322615,67.0681786 C30.9079684,66.1873009 29.9035624,65.7797684 28.2168556,66.5583833 L26.2333519,67.4741923 Z M27.4057128,72.4073605 L30.2231113,71.1065471 C32.5213068,70.0451908 34.6934722,70.5840956 35.350209,71.9788185 C36.110991,73.5940141 34.8018632,75.2709723 32.707412,76.2379127 L29.8345398,77.5645449 L27.4057128,72.4073605 Z M27.2329008,72.0403281 L24.8472767,66.9747752 L27.7204045,65.648143 C30.0372617,64.5784335 31.6012617,64.9287596 32.2495624,66.3052575 C32.9062992,67.7002337 32.0148857,69.8320589 30.0502992,70.7392616 L27.2329008,72.0403281 Z M28.1537128,78.7873955 L32.8802241,76.6051982 C35.1600135,75.5524482 36.602585,73.6798237 35.7208857,71.8077055 C35.029382,70.3395761 32.6463143,69.8310464 30.8322992,70.5792862 C32.4658331,69.735618 33.3117429,67.602274 32.6202391,66.1341445 C31.8684045,64.537174 30.1239233,64.0914196 27.5473368,65.2811107 L22.8208256,67.4635611 L22.9938932,67.8305934 L24.4766,67.1458882 L29.4638632,77.7356579 L27.9809008,78.4203631 L28.1537128,78.7873955 Z M21.5224346,67.1020975 L27.1201639,64.5176834 C30.4751714,62.9685536 32.6248406,63.6517401 33.5842541,65.6891494 C34.240991,67.0838724 33.8920436,68.4515109 32.6698331,69.6414552 C34.7098331,69.3253011 36.0366,69.9862125 36.6846451,71.3627104 C37.7652316,73.6570424 36.1621188,76.0505997 33.196194,77.4200101 L27.5987203,80.0044242 L26.6134872,77.9123397 L28.0407203,77.2532002 L23.9351564,68.5355487 L22.5079233,69.1944351 L21.5224346,67.1020975 Z" id="Fill-16" fill="#FFFFFF"></path>
                <path d="M43.9583955,66.0605102 L47.2947414,64.5199868 L43.8116586,61.4361555 L43.9583955,66.0605102 Z M42.9261248,59.3645742 L48.9402902,64.5645369 L42.9348165,67.3375297 L42.7965158,59.4245651 L42.9261248,59.3645742 Z M41.6967564,72.4225733 L44.6992376,71.0362035 L44.5264256,70.6691711 L43.0066511,71.3708358 L42.9409519,67.7815123 L49.2800346,64.8546191 L52.0148617,67.2117262 L50.4764256,67.9219971 L50.6492376,68.2890295 L53.6522301,66.9026597 L53.4791624,66.5353742 L52.4042,67.0320069 L42.5112226,58.4836966 L39.6567564,59.8017225 L39.8295684,60.1687548 L42.4432226,58.9621043 L42.5989068,71.5591613 L41.5239444,72.055541 L41.6967564,72.4225733 Z M38.3522301,59.3316679 L42.6155233,57.3631088 L52.5811023,65.9223036 L53.9899293,65.2717703 L54.9751624,67.3641079 L50.1374481,69.5979429 L49.1519594,67.5056053 L50.1530421,67.0433976 L48.9287865,65.977485 L44.0169368,68.2454919 L44.0734331,69.8505624 L45.1854632,69.3369702 L46.1706962,71.4293078 L41.2959143,73.6801022 L40.3106812,71.5880177 L41.7192526,70.9374844 L41.5620346,60.3968211 L39.3374632,61.4237524 L38.3522301,59.3316679 Z" id="Fill-18" fill="#FFFFFF"></path>
                <path d="M51.5847489,54.271861 L52.4316812,56.0705727 L52.8023579,55.8994597 L52.1282376,54.4677803 L56.2245985,52.5764245 L61.1512752,63.0378595 L59.7053805,63.7053521 L59.8784481,64.0723845 L63.1406586,62.566033 L62.9678466,62.1990007 L61.5222075,62.8664933 L56.5955308,52.4050584 L60.5990947,50.556734 L61.273215,51.9881603 L61.6438917,51.8170472 L60.7967038,50.0183355 L51.5847489,54.271861 Z M58.3453805,63.2608633 L59.7539519,62.6105832 L55.648388,53.8926785 L53.2573955,54.99656 L53.9315158,56.4282394 L51.9669293,57.3354421 L50.3075759,53.8114252 L61.2617113,48.7537192 L62.9213203,52.277483 L60.9567338,53.1846858 L60.2823579,51.7530064 L57.9655008,52.8227159 L62.0710647,61.5406206 L63.4982977,60.881481 L64.4835308,62.9738187 L59.3306135,65.3532009 L58.3453805,63.2608633 Z" id="Fill-20" fill="#FFFFFF"></path>
                <path d="M65.4303669,47.8790178 L66.2772992,49.6777295 L66.6479759,49.5066165 L65.9738556,48.0749371 L70.0702165,46.1835814 L74.9968932,56.6450163 L73.5509985,57.3125089 L73.7240662,57.6795413 L76.9862767,56.1731899 L76.8134647,55.8061575 L75.3675699,56.4736501 L70.4411489,46.0124683 L74.4447128,44.1638908 L75.1188331,45.5953171 L75.4895098,45.4242041 L74.6423218,43.6254923 L65.4303669,47.8790178 Z M72.1909985,56.8680201 L73.5995699,56.21774 L69.494006,47.4998354 L67.1030135,48.6037168 L67.7771338,50.0353962 L65.8125474,50.942599 L64.1529383,47.418582 L75.1073293,42.360876 L76.7669383,45.8846398 L74.8023519,46.7918426 L74.1279759,45.3601632 L71.8111188,46.4298727 L75.9166827,55.1477774 L77.3439158,54.488891 L78.3294045,56.5809755 L73.1762316,58.9603577 L72.1909985,56.8680201 Z" id="Fill-22" fill="#FFFFFF"></path>
                <path d="M92.2362226,46.9646009 L92.9103429,48.3962803 L86.8491398,51.1948388 L81.9137714,40.7151788 L84.0826135,39.7138133 L83.9098015,39.3467809 L79.9246436,41.1867521 L80.0974556,41.5537845 L81.5433504,40.8862918 L86.4787188,51.3659518 L85.0328241,52.0334445 L85.2056361,52.4004768 L93.4538316,48.5921996 L92.6068992,46.7934879 L92.2362226,46.9646009 Z M84.7789744,53.6030774 L83.7937414,51.5107397 L85.2209744,50.8518534 L81.1154105,42.1339487 L79.6881774,42.7930882 L78.7026887,40.7007506 L84.4116211,38.0646989 L85.3971098,40.1570365 L83.413606,41.0728455 L87.5191699,49.790497 L91.7269895,47.8477567 L91.0526135,46.4163305 L93.0172,45.5091277 L94.676809,49.0328916 L84.7789744,53.6030774 Z" id="Fill-24" fill="#FFFFFF"></path>
                <path d="M105.692451,40.7515783 L106.366571,42.1830045 L100.305624,44.981563 L98.0756842,40.2463392 L101.467504,38.6805032 L101.294692,38.3134709 L97.9028722,39.87956 L95.3702556,34.501903 L101.431203,31.7033445 L102.105579,33.1350239 L102.476,32.9639109 L101.629068,31.1651991 L93.3808722,34.9737295 L93.5536842,35.3407618 L94.9995789,34.673016 L99.9346917,45.1529292 L98.4890526,45.8204218 L98.6618647,46.1874542 L106.91006,42.379177 L106.063128,40.5804653 L105.692451,40.7515783 Z M101.751774,34.3485088 L101.077654,32.9170826 L96.8700902,34.8595697 L98.5729023,38.4752182 L101.72391,37.0202513 L102.674632,39.0391824 L99.5236241,40.4941494 L100.975654,43.5774744 L105.183218,41.6347341 L104.508842,40.2033079 L106.473684,39.2961051 L108.133293,42.8198689 L98.2354586,47.3898016 L97.2499699,45.2977171 L98.677203,44.6385776 L94.5718947,35.9209261 L93.144406,36.5798125 L92.1591729,34.4874749 L102.057008,29.9175422 L103.716617,33.4413061 L101.751774,34.3485088 Z" id="Fill-26" fill="#FFFFFF"></path>
                <path d="M40.2330947,89.4871737 L40.1973053,89.4590767 L39.8327639,89.7390338 L39.8414556,89.757512 C39.9812902,89.6706898 40.1208692,89.5838677 40.2330947,89.4871737 L40.2330947,89.4871737 Z M34.3362677,84.6800622 L36.7132,89.7271369 L38.4183128,88.9396626 C40.5684932,87.9469033 40.7740271,86.466877 40.1085985,85.0536758 C39.4431699,83.6404746 38.2102226,82.8912223 36.0416361,83.8925879 L34.3362677,84.6800622 Z M36.1070797,91.124138 L32.8747789,84.2601265 L35.6737714,82.9676663 C38.3313955,81.8075909 40.196794,82.5102681 41.1648992,84.5659024 C42.1330045,86.6212837 41.5565383,88.6080679 38.5353955,90.0027908 L36.1070797,91.124138 Z M45.951997,91.4719328 L45.7789293,91.1049004 L44.4999669,91.6954429 L40.2330947,89.4871737 C42.1572902,88.0625818 42.4175308,86.2666545 41.5358316,84.3945363 C40.4726286,82.1371607 38.4180571,81.3205769 35.5007038,82.600634 L30.8853955,84.7316998 L31.0582075,85.0987322 L32.5041023,84.4312395 L37.4479068,94.9291246 L36.0022677,95.5966172 L36.1750797,95.9636496 L39.6226286,94.3719948 L39.4495609,94.0049624 L37.8185835,94.7580116 L36.2801474,91.4911704 L38.7082075,90.3700763 C39.1346135,90.1731445 39.5152602,89.974947 39.8414556,89.757512 L44.5061023,92.1394255 L45.951997,91.4719328 Z M29.6253504,84.3079673 L35.2230797,81.7233 C38.6890346,80.1230389 41.321606,81.2089485 42.5921323,83.9067629 C43.534418,85.9072159 43.3051098,87.9122251 41.9394857,89.32492 L44.4286436,90.6335803 L46.0969444,89.8633185 L47.0821774,91.955403 L44.3389143,93.2220444 L39.7867489,90.7434368 C39.5730346,90.864431 39.3319669,90.9758063 39.0911549,91.0869285 L37.6639218,91.746068 L38.4418316,93.3977137 L39.850403,92.7474336 L40.8356361,94.839518 L35.7016361,97.210294 L34.7161474,95.1179564 L36.1433805,94.45907 L32.0378165,85.7411654 L30.6105835,86.4003049 L29.6253504,84.3079673 Z" id="Fill-28" fill="#FFFFFF"></path>
                <path d="M57.5876406,72.9611743 L58.8111293,72.3964507 L66.257385,77.0914275 L68.0205278,80.8354108 L66.4079564,81.5798537 L66.5810241,81.946886 L70.0840466,80.3294124 L69.9112346,79.96238 L68.3914602,80.6642978 L66.6283173,76.9200614 L67.6340015,68.3226446 L68.8201669,67.7748804 L68.6473549,67.4078481 L65.1440767,69.0253217 L65.3171444,69.3923541 L67.2075955,68.5193233 L66.2438361,76.5836572 L59.2188737,72.2078721 L61.0909188,71.3437007 L60.9181068,70.9764152 L57.4148286,72.594142 L57.5876406,72.9611743 Z M62.2867985,71.7745207 L61.2118361,72.2709004 L65.4539113,75.0492088 L66.0124827,70.054278 L64.900197,70.5678702 L63.9149639,68.4755326 L68.9196105,66.1650006 L69.9048436,68.257085 L68.5704075,68.8734463 L67.5698361,76.619348 L68.8574902,79.3541188 L70.2663173,78.7038387 L71.2515504,80.7959232 L66.0988887,83.1750523 L65.1134,81.0829678 L66.5406331,80.4238283 L65.2442872,77.6708324 L58.6168436,73.4691978 L57.2821519,74.0853059 L56.2969188,71.9932214 L61.3013098,69.6824362 L62.2867985,71.7745207 Z" id="Fill-30" fill="#FFFFFF"></path>
                <path d="M78.8627955,70.8913396 L82.1991414,69.3508162 L78.715803,66.2669849 L78.8627955,70.8913396 Z M77.8305248,64.1956568 L83.8446902,69.3953663 L77.8392165,72.1683591 L77.7009158,64.2553944 L77.8305248,64.1956568 Z M76.6011564,77.2534027 L79.6036376,75.8670329 L79.4308256,75.5000005 L77.9110511,76.2016651 L77.8453519,72.6123417 L84.1844346,69.6854484 L86.9192617,72.0425556 L85.3808256,72.7528265 L85.5536376,73.1198589 L88.5566301,71.733489 L88.3835624,71.3662036 L87.3086,71.8628363 L77.4156226,63.3145259 L74.5611564,64.6325518 L74.7339684,64.9995842 L77.3473669,63.7929337 L77.5030511,76.3899907 L76.4283444,76.8863703 L76.6011564,77.2534027 Z M73.2566301,64.1622441 L77.5196677,62.1939382 L87.4855023,70.7531329 L88.8943293,70.1025997 L89.8795624,72.1949373 L85.0418481,74.4287722 L84.0563594,72.3364346 L85.0574421,71.874227 L83.8331865,70.8083144 L78.9213368,73.0763213 L78.9778331,74.6813918 L80.0898632,74.1677996 L81.0750962,76.2601372 L76.2003143,78.5109315 L75.2148256,76.418847 L76.6236526,75.7683138 L76.4661789,65.2276505 L74.2418632,66.2545818 L73.2566301,64.1622441 Z" id="Fill-32" fill="#FFFFFF"></path>
                <path d="M100.338832,64.1704454 L101.012952,65.6021248 L94.9520045,68.4004302 L90.0166361,57.9207702 L92.1852226,56.9196578 L92.0124105,56.5526254 L88.0272526,58.3925966 L88.2000647,58.759629 L89.6459594,58.0921363 L94.5813278,68.5717963 L93.1354331,69.239289 L93.3082451,69.6063213 L101.556441,65.7980441 L100.709508,63.9993324 L100.338832,64.1704454 Z M92.8818391,70.8086687 L91.8963504,68.7165842 L93.3238391,68.0574447 L89.2182752,59.3397932 L87.7910421,59.9986796 L86.8055534,57.9065951 L92.5144857,55.2705434 L93.4999744,57.362881 L91.5164707,58.2784369 L95.6220346,66.9963415 L99.8295985,65.0536012 L99.1552226,63.622175 L101.120065,62.7149722 L102.779674,66.2387361 L92.8818391,70.8086687 Z" id="Fill-34" fill="#FFFFFF"></path>
                <path d="M113.795265,57.9572962 L114.469385,59.3889756 L108.408438,62.187281 L106.178498,57.4523103 L109.570317,55.8862212 L109.397505,55.5191888 L106.005686,57.0852779 L103.473069,51.707621 L109.534272,48.9090625 L110.208392,50.3407418 L110.579069,50.1696288 L109.731881,48.3709171 L101.483686,52.1794474 L101.656498,52.5464798 L103.102392,51.8789871 L108.037761,62.3586471 L106.591866,63.0261398 L106.764678,63.3931721 L115.012874,59.5848949 L114.165941,57.7861832 L113.795265,57.9572962 Z M109.854588,51.5542268 L109.180468,50.1228005 L104.972904,52.0655408 L106.675716,55.6809362 L109.826723,54.2259693 L110.777445,56.2449004 L107.626438,57.6998673 L109.078468,60.7831923 L113.286032,58.840452 L112.611911,57.4090258 L114.576498,56.501823 L116.236107,60.0255869 L106.338272,64.5955195 L105.353039,62.503435 L106.780272,61.8442955 L102.674708,53.126644 L101.247475,53.7855304 L100.261986,51.6934459 L110.159821,47.1232602 L111.81943,50.647024 L109.854588,51.5542268 Z" id="Fill-36" fill="#FFFFFF"></path>
                <path d="M53.5186586,84.6223495 C51.9158015,85.3624892 49.9885383,84.6625965 49.2328692,83.0585385 C48.9496211,82.4566054 48.8721624,81.8063253 48.9685383,81.1960391 C49.1285684,80.1807516 49.7794256,79.267727 50.7794857,78.8060255 C51.7831248,78.3428054 52.9043579,78.4374744 53.7962827,78.9667604 C54.3341474,79.2844333 54.7838165,79.762841 55.0670647,80.3645209 C55.8227338,81.968832 55.1276511,83.8794254 53.5186586,84.6223495 M52.1466436,77.5391311 C51.5305534,77.5391311 50.9326135,77.6707565 50.3696962,77.9309698 C48.2650195,78.9027196 47.3511098,81.3886678 48.3325083,83.4723991 C49.0217113,84.9359723 50.5207789,85.8813971 52.1522677,85.8813971 C52.7683579,85.8813971 53.3662977,85.7495185 53.929215,85.4895584 C54.9487038,85.0189976 55.7222677,84.1831763 56.1070045,83.1365012 C56.4917414,82.0898262 56.4418917,80.9575946 55.966403,79.9478759 C55.2772,78.4845558 53.7778767,77.5391311 52.1466436,77.5391311" id="Fill-38" fill="#EC6929"></path>
                <path d="M56.4672767,83.2665572 C56.0475173,84.4084076 55.2036526,85.3201666 54.0913669,85.8337588 C53.4773218,86.1172597 52.8246752,86.2610351 52.1523444,86.2610351 C50.372585,86.2610351 48.7367504,85.2295476 47.9849158,83.6330834 C46.9142992,81.3595077 47.9112917,78.6470119 50.2076977,77.5869212 C50.8217429,77.3031672 51.4741338,77.1593918 52.1467203,77.1593918 C53.9264797,77.1593918 55.5620586,78.1908793 56.3138932,79.7873435 C56.832585,80.8886938 56.8870361,82.1244538 56.4672767,83.2665572 M57.1592917,79.3985424 C56.8903594,78.8277437 56.5334872,78.3275672 56.115006,77.8962409 C54.5139383,76.2668703 51.9907805,75.7218905 49.8027654,76.7321155 C47.618585,77.7405686 46.4183594,80.0047786 46.650991,82.2662042 C46.7143895,82.8613029 46.8718632,83.4536172 47.1407955,84.0244158 C48.4340737,86.7703241 51.735397,87.9633059 54.4924647,86.6900833 C57.2569459,85.4138231 58.4525699,82.1447038 57.1592917,79.3985424" id="Fill-40" fill="#EC6929"></path>
                <polygon id="Fill-42" fill="#FFFFFF" points="67.8642812 93.3929296 69.6432737 97.2052568 70.5374992 96.7956993 71.0462211 97.8866714 68.1344917 99.2188723 67.6255143 98.1281534 68.4435594 97.7540335 66.1456195 92.8292185 65.3278301 93.2035915 64.818597 92.1128726 66.6834842 91.2598387 72.298597 94.1032005 70.7261609 90.7338434 69.8319353 91.1428946 69.3227023 90.0524288 72.2022211 88.7351623 72.7109429 89.8256281 71.9261308 90.1848136 74.7376496 96.2109788 74.0824466 96.5367516"></polygon>
                <polygon id="Fill-44" fill="#FFFFFF" points="77.1796421 93.7567979 78.0738677 93.3479998 75.7611008 88.3912909 74.4304992 88.9998053 74.954815 90.1231775 73.7878226 90.6567666 72.7698677 88.4753287 78.9969805 85.626145 80.015191 87.807836 78.8481985 88.3414252 78.3241383 87.2185593 76.9937925 87.8270736 79.3065594 92.7837824 80.200785 92.3747312 80.7102737 93.4657032 77.6888752 94.84777"></polygon>
                <polygon id="Fill-46" fill="#FFFFFF" points="82.6978421 86.6065011 84.4763233 90.4188284 85.3705489 90.009524 85.879782 91.1002429 82.9680526 92.432697 82.4585639 91.3417249 83.276609 90.967605 80.9786692 86.0430432 80.1608797 86.4174162 79.6521579 85.3266973 81.5170451 84.4734103 87.1321579 87.3167721 85.5597218 83.9474149 84.664985 84.3564662 84.1562632 83.2660004 87.035782 81.9487339 87.5445038 83.0391997 86.7591805 83.3983851 89.5712105 89.4245503 88.9160075 89.7505763"></polygon>
                <path d="M90.5382932,85.8238869 L88.9410602,82.4003609 L88.1557368,82.7597994 L87.6467594,81.6690805 L90.5257669,80.351814 L91.035,81.4422798 L90.1732406,81.8366498 L91.7405639,85.1953756 C92.2492857,86.2858414 93.0783233,86.6146518 93.9940226,86.1957286 C94.9212256,85.7714899 95.2305489,84.9878125 94.7164586,83.8862091 L93.1291955,80.4841988 L92.2674361,80.8785687 L91.7584586,79.7878498 L94.605,78.4857708 L95.1137218,79.5762366 L94.3283985,79.9354221 L95.9161729,83.3374325 C96.7830451,85.1946162 96.0943534,86.5840236 94.5132256,87.307457 C92.9098571,88.0412686 91.3951955,87.659555 90.5382932,85.8238869" id="Fill-48" fill="#FFFFFF"></path>
                <polygon id="Fill-50" fill="#FFFFFF" points="75.7646286 103.08266 76.1825985 102.89155 75.0087038 100.376492 74.5907338 100.567602 74.3312602 100.010726 77.0663429 98.759525 77.550012 99.7963281 76.9484932 100.071476 76.7217414 99.5859806 75.6357865 100.082866 76.0887789 101.053604 77.1972301 100.546593 77.4441774 101.076132 76.3357263 101.583143 76.8145383 102.608809 77.9061173 102.109391 77.6793654 101.623896 78.2811398 101.348748 78.7653203 102.385805 76.0248692 103.639537"></polygon>
                <path d="M80.387606,100.967668 C81.3347489,100.534569 81.5878316,99.8025297 81.2248241,99.0249273 C80.854403,98.2308718 80.0831398,98.0549494 79.1692301,98.4731132 L78.8517263,98.6184074 L80.0256211,101.133465 L80.387606,100.967668 Z M78.978012,101.612632 L79.395982,101.421269 L78.2225985,98.9062114 L77.8046286,99.0973213 L77.5446436,98.5404446 L78.9317414,97.9058583 C80.2572301,97.2996221 81.3618466,97.6238762 81.8738917,98.7214295 C82.3913053,99.8301204 81.9953203,100.90793 80.5583729,101.565298 L79.2382526,102.169256 L78.978012,101.612632 Z" id="Fill-52" fill="#FFFFFF"></path>
                <polygon id="Fill-54" fill="#FFFFFF" points="82.9385008 99.8006566 83.3843353 99.5966372 82.2104406 97.0818327 81.764606 97.2855989 81.5046211 96.7287222 83.025418 96.0328795 83.285403 96.5897562 82.8395684 96.7937756 84.0134632 99.3088332 84.4587865 99.105067 84.7190271 99.6619437 83.1982301 100.357533"></polygon>
                <polygon id="Fill-56" fill="#FFFFFF" points="85.6117444 98.5775529 86.0685714 98.3687241 84.8872632 95.8369601 84.2072632 96.1477986 84.4749173 96.7213816 83.8792782 96.993998 83.3593083 95.8802447 86.5399699 94.4252777 87.0596842 95.5390311 86.4635338 95.8116476 86.1958797 95.2380646 85.516391 95.548903 86.6976992 98.080667 87.1545263 97.8718382 87.4142556 98.4287149 85.8714737 99.1346827"></polygon>
                <polygon id="Fill-58" fill="#FFFFFF" points="88.3069218 97.3445519 88.7527564 97.1405325 87.5788617 94.6254749 87.1335383 94.8292411 86.8735534 94.2723645 88.3943504 93.5767748 88.6538241 94.1336515 88.2085008 94.3376709 89.3823955 96.8527285 89.8277188 96.6487092 90.0879594 97.2055859 88.5671624 97.9014286"></polygon>
                <path d="M92.8110782,93.7577851 C92.4585519,93.0024578 91.6857549,92.6931381 90.9781459,93.0166328 C90.2651684,93.3426588 89.9995594,94.1205143 90.3546421,94.8814104 C90.7074241,95.6372439 91.4799654,95.9463105 92.1929429,95.6197782 C92.9005519,95.2962835 93.1666722,94.5191874 92.8110782,93.7577851 M89.703018,95.1795925 C89.2065669,94.1151987 89.6056195,92.9422138 90.7194391,92.4326717 C91.8278902,91.9256608 92.9688075,92.4007778 93.4632135,93.4596029 C93.959409,94.5237437 93.560612,95.6969816 92.4465368,96.2067769 C91.3380857,96.7137878 90.1971684,96.2386707 89.703018,95.1795925" id="Fill-60" fill="#FFFFFF"></path>
                <polygon id="Fill-62" fill="#FFFFFF" points="94.6335038 92.0875094 95.5423008 94.0342997 95.9991278 93.8254709 96.2586015 94.3820945 94.7718045 95.0627497 94.5115639 94.505873 94.9295338 94.314763 93.7556391 91.7994522 93.3379248 91.9908153 93.0781955 91.4339386 94.0304511 90.9980561 96.8982105 92.4502386 96.0955038 90.7292365 95.6386767 90.9383184 95.3784361 90.3814417 96.8493835 89.7086334 97.1091128 90.2655101 96.708015 90.4490263 98.1439398 93.5267825 97.8095639 93.6930861"></polygon>
            </g>
        </g>
    </g>
</svg>