<?xml version="1.0" encoding="UTF-8" standalone="no"?>
<svg width="24px" height="23px" viewBox="0 0 24 23" version="1.1" xmlns="http://www.w3.org/2000/svg" xmlns:xlink="http://www.w3.org/1999/xlink">
    <!-- Generator: Sketch 39.1 (31720) - http://www.bohemiancoding.com/sketch -->
    <title>Fill 1</title>
    <desc>Created with Sketch.</desc>
    <defs></defs>
    <g id="Page-1" stroke="none" stroke-width="1" fill="none" fill-rule="evenodd">
        <g id="Desktop-HD" transform="translate(-1114.000000, -222.000000)" fill="#D45A1F">
            <g id="Knapp-options" transform="translate(1102.000000, 209.000000)">
                <path d="M23.6672853,28.3718576 C21.5290177,28.3718576 19.7954278,26.6382677 19.7954278,24.5 C19.7954278,22.3617323 21.5290177,20.6281424 23.6672853,20.6281424 C25.805553,20.6281424 27.5391429,22.3617323 27.5391429,24.5 C27.5391429,26.6382677 25.805553,28.3718576 23.6672853,28.3718576 L23.6672853,28.3718576 Z M35.2845933,25.9590614 L35.3345707,23.5098234 L32.5094613,22.9749962 L31.872597,20.8655349 L33.9247925,18.8532518 L32.5247322,16.8427041 L29.925215,18.0685378 L28.1697601,16.7382375 L28.6466274,13.9023691 L26.3323978,13.0989135 L24.9493436,15.6192998 L22.7465218,15.5741814 L21.4675871,13 L19.1214275,13.7104421 L19.4841105,16.5619285 L17.6765957,17.8203863 L15.1277501,16.4893919 L13.6475177,18.4426739 L15.6167648,20.5365173 L14.8934812,22.616478 L12.0506715,23.0392033 L12,25.4884412 L14.8247623,26.0253508 L15.4619737,28.1337709 L13.4097782,30.145707 L14.8094915,32.1566018 L17.4100498,30.930421 L19.1648106,32.2610684 L18.686555,35.0958956 L21.0018259,35.9014335 L22.3855742,33.3813943 L24.5870077,33.4251245 L25.8673306,36 L28.2127961,35.2895579 L27.849419,32.4377245 L29.658322,31.1796137 L32.2071676,32.509914 L33.687053,30.5576732 L31.7164177,28.4624415 L32.4403954,26.3821337 L35.2845933,25.9590614 Z" id="Fill-1"></path>
            </g>
        </g>
    </g>
</svg>