<?xml version="1.0" encoding="UTF-8" standalone="no"?>
<svg width="44px" height="44px" viewBox="0 0 44 44" version="1.1" xmlns="http://www.w3.org/2000/svg" xmlns:xlink="http://www.w3.org/1999/xlink">
    <!-- Generator: Sketch 39.1 (31720) - http://www.bohemiancoding.com/sketch -->
    <title>Page 1</title>
    <desc>Created with Sketch.</desc>
    <defs>
        <polygon id="path-1" points="21.9050615 43.8100855 43.8100855 43.8100855 43.8100855 0 21.9050615 0 3.76068374e-05 0 3.76068374e-05 43.8100855"></polygon>
    </defs>
    <g id="Page-1" stroke="none" stroke-width="1" fill="none" fill-rule="evenodd">
        <g id="Desktop-HD" transform="translate(-1132.000000, -643.000000)">
            <g id="Page-1" transform="translate(1132.000000, 643.000000)">
                <mask id="mask-2" fill="white">
                    <use xlink:href="#path-1"></use>
                </mask>
                <g id="Clip-2"></g>
                <path d="M21.9048923,40.0494017 C17.0404479,40.0494017 12.6201402,38.1212991 9.35887521,34.9939145 L34.9939521,9.35883761 C38.1213368,12.6204786 40.0494393,17.0404103 40.0494393,21.9052308 C40.0494393,31.9097778 31.9098154,40.0494017 21.9048923,40.0494017 M21.9048923,3.76068376 C25.6896444,3.76068376 29.2062598,4.92687179 32.1177812,6.91702564 L6.91706325,32.1177436 C4.9269094,29.2062222 3.76072137,25.6899829 3.76072137,21.9052308 C3.76072137,11.8999316 11.8999692,3.76068376 21.9048923,3.76068376 M21.9048923,0 C9.82632821,0 3.76068374e-05,9.82666667 3.76068374e-05,21.9052308 C3.76068374e-05,33.9834188 9.82632821,43.8100855 21.9048923,43.8100855 C33.9834564,43.8100855 43.8101231,33.9834188 43.8101231,21.9052308 C43.8101231,9.82666667 33.9834564,0 21.9048923,0" id="Fill-1" fill="#D45A1F" mask="url(#mask-2)"></path>
            </g>
        </g>
    </g>
</svg>