<?xml version="1.0" encoding="UTF-8" standalone="no"?>
<svg width="43px" height="65px" viewBox="0 0 43 65" version="1.1" xmlns="http://www.w3.org/2000/svg" xmlns:xlink="http://www.w3.org/1999/xlink">
    <!-- Generator: Sketch 39.1 (31720) - http://www.bohemiancoding.com/sketch -->
    <title>Page 1</title>
    <desc>Created with Sketch.</desc>
    <defs>
        <polygon id="path-1" points="21.4072192 64.4935345 42.8144017 64.4935345 42.8144017 0.229228448 21.4072192 0.229228448 3.6752137e-05 0.229228448 3.6752137e-05 64.4935345"></polygon>
    </defs>
    <g id="Page-1" stroke="none" stroke-width="1" fill="none" fill-rule="evenodd">
        <g id="Desktop-HD" transform="translate(-1215.000000, -622.000000)">
            <g id="Page-1" transform="translate(1215.000000, 622.000000)">
                <path d="M35.0125111,43.2125108 L31.3372974,43.2125108 C31.3372974,37.7220841 26.8825709,33.2547091 21.4068701,33.2547091 L21.4068701,29.5693642 C28.9094513,29.5693642 35.0125111,35.6896164 35.0125111,43.2125108" id="Fill-1" fill="#D45A1F"></path>
                <g id="Group-5" transform="translate(0.000000, 0.139306)">
                    <mask id="mask-2" fill="white">
                        <use xlink:href="#path-1"></use>
                    </mask>
                    <g id="Clip-4"></g>
                    <path d="M21.4070538,60.8081897 C11.6295154,60.8081897 3.67525043,52.8316293 3.67525043,43.0275065 C3.67525043,34.6614052 9.35308803,27.5313685 17.4826607,25.6890647 L18.915259,25.3643858 L18.915259,21.2961336 L23.8992162,21.2961336 L23.8992162,25.3643858 L25.3318145,25.6890647 C33.4613872,27.5313685 39.1392248,34.6614052 39.1392248,43.0275065 C39.1392248,52.8316293 31.1845923,60.8081897 21.4070538,60.8081897 M27.5744299,22.4702845 L27.5744299,17.6107888 L23.2446607,17.6107888 L23.2446607,12.0625022 L25.2763188,14.8755259 L23.2446607,10.1752371 L23.2446607,9.97364871 L23.1575581,9.97364871 L23.0557547,9.73815517 L28.1532761,12.023069 L23.6684128,8.68746336 L29.2223957,8.1107069 L23.6753957,7.4705625 L28.1977462,4.18618319 L23.0744983,6.41323707 L25.3531308,1.30166379 L22.0270624,5.79852155 L21.4515239,0.229228448 L20.8131393,5.79188793 L17.5381564,1.25707112 L19.7587205,6.39444181 L14.6611991,4.10915948 L19.1460624,7.44476509 L13.5920795,8.02152155 L19.1390795,8.66166595 L14.6167291,11.9460453 L19.7399769,9.71899138 L19.6264128,9.97364871 L19.569447,9.97364871 L19.569447,10.1015302 L17.4609769,14.8309332 L19.569447,11.980319 L19.569447,17.6107888 L15.2400453,17.6107888 L15.2400453,22.4702845 C6.19497692,25.1731164 3.6752137e-05,33.4257091 3.6752137e-05,43.0275065 C3.6752137e-05,54.8637284 9.60337009,64.4935345 21.4070538,64.4935345 C33.2111051,64.4935345 42.8144385,54.8637284 42.8144385,43.0275065 C42.8144385,33.4257091 36.6194983,25.1731164 27.5744299,22.4702845" id="Fill-3" fill="#D45A1F" mask="url(#mask-2)"></path>
                </g>
            </g>
        </g>
    </g>
</svg>