<?xml version="1.0" encoding="UTF-8" standalone="no"?>
<svg width="44px" height="53px" viewBox="0 0 44 53" version="1.1" xmlns="http://www.w3.org/2000/svg" xmlns:xlink="http://www.w3.org/1999/xlink">
    <!-- Generator: Sketch 39.1 (31720) - http://www.bohemiancoding.com/sketch -->
    <title>Page 1</title>
    <desc>Created with Sketch.</desc>
    <defs>
        <polygon id="path-1" points="43.8100855 52.9311752 43.8100855 0 3.76068383e-05 0 3.76068383e-05 52.9311752 43.8100855 52.9311752"></polygon>
    </defs>
    <g id="Page-1" stroke="none" stroke-width="1" fill="none" fill-rule="evenodd">
        <g id="Desktop-HD" transform="translate(-1302.000000, -635.000000)">
            <g id="Page-1" transform="translate(1302.000000, 635.000000)">
                <mask id="mask-2" fill="white">
                    <use xlink:href="#path-1"></use>
                </mask>
                <g id="Clip-2"></g>
                <path d="M27.4962769,28.7815936 C26.5211316,26.666856 24.3873197,25.1960121 21.9048923,25.1960121 C19.422841,25.1960121 17.288653,26.666856 16.3138838,28.7815936 L3.90588376,28.7815936 C5.02130256,19.8430121 12.6648923,12.9015156 21.9052684,12.9015156 C31.1452684,12.9015156 38.7888581,19.8430121 39.9039009,28.7815936 L27.4962769,28.7815936 Z M33.7130632,34.0654305 L31.6262598,42.2142745 C29.6985333,40.5483454 27.5842769,38.721161 27.5842769,38.721161 L26.0123111,47.1304943 L21.9048923,38.777544 C21.9048923,38.777544 19.0652,44.5530404 17.3202427,48.1014092 L15.567012,38.721161 C15.567012,38.721161 13.4527556,40.5483454 11.5250291,42.2142745 L9.43822564,34.0654305 L5.24130256,38.2054447 C4.4797641,36.4432887 3.99275556,34.5371681 3.82803761,32.5404589 L15.8629778,32.5404589 C16.4173026,35.3712603 18.9102598,37.5081752 21.9048923,37.5081752 C24.8995248,37.5081752 27.3928581,35.3712603 27.9471829,32.5404589 L39.9821231,32.5404589 C39.8031145,34.7081965 39.2423966,36.7684305 38.3650291,38.6546291 L33.7130632,34.0654305 Z M39.9693368,18.6713738 L38.1311145,8.83667872 C38.1311145,8.83667872 36.0168581,10.6634872 34.0891316,12.3294163 L32.0023282,4.18094823 C32.0023282,4.18094823 27.8531658,8.2739766 26.5876957,9.52229574 L21.9048923,-3.75886525e-05 C21.9048923,-3.75886525e-05 18.9726872,5.96340213 17.2529265,9.46027447 C15.924653,8.14993404 11.9010974,4.18094823 11.9010974,4.18094823 L9.81429402,12.3294163 C7.88656752,10.6634872 5.77231111,8.83667872 5.77231111,8.83667872 L3.96718291,18.4935794 C1.47121709,22.0490901 3.76068383e-05,26.3732887 3.76068383e-05,31.0369128 C3.76068383e-05,43.1092603 9.82670427,52.9311752 21.9052684,52.9311752 C33.9834564,52.9311752 43.8101231,43.1092603 43.8101231,31.0369128 C43.8101231,26.451473 42.3897128,22.1926787 39.9693368,18.6713738 L39.9693368,18.6713738 Z" id="Fill-1" fill="#D45A1F" mask="url(#mask-2)"></path>
            </g>
        </g>
    </g>
</svg>